<?xml version="1.0" encoding="UTF-8" standalone="no"?>
<!DOCTYPE svg PUBLIC "-//W3C//DTD SVG 1.1//EN"
 "http://www.w3.org/Graphics/SVG/1.1/DTD/svg11.dtd">
<!-- Generated by graphviz version 2.43.0 (0)
 -->
<!-- Title: SPL_Boot_StateMachine Pages: 1 -->
<svg width="358pt" height="1152pt"
 viewBox="0.00 0.00 358.40 1151.59" xmlns="http://www.w3.org/2000/svg" xmlns:xlink="http://www.w3.org/1999/xlink">
<g id="graph0" class="graph" transform="scale(1 1) rotate(0) translate(4 1147.59)">
<title>SPL_Boot_StateMachine</title>
<polygon fill="white" stroke="transparent" points="-4,4 -4,-1147.59 354.4,-1147.59 354.4,4 -4,4"/>
<text text-anchor="middle" x="175.2" y="-1128.39" font-family="Arial" font-size="14.00">U&#45;Boot SPL 启动状态机 (Nuclei RISC&#45;V)</text>
<g id="clust2" class="cluster">
<title>cluster_main</title>
<polygon fill="#ecf0f1" stroke="#bdc3c7" points="91.4,-332.79 91.4,-550.79 219.4,-550.79 219.4,-332.79 91.4,-332.79"/>
<text text-anchor="middle" x="155.4" y="-535.59" font-family="Arial" font-size="14.00" fill="#7f8c8d">主流程</text>
</g>
<g id="clust1" class="cluster">
<title>cluster_early</title>
<polygon fill="#ecf0f1" stroke="#bdc3c7" points="40.4,-597.79 40.4,-946.79 192.4,-946.79 192.4,-597.79 40.4,-597.79"/>
<text text-anchor="middle" x="116.4" y="-931.59" font-family="Arial" font-size="14.00" fill="#7f8c8d">早期初始化 (M&#45;mode)</text>
</g>
<!-- Reset -->
<g id="node1" class="node">
<title>Reset</title>
<ellipse fill="#e74c3c" stroke="black" cx="102.4" cy="-1061.19" rx="59.29" ry="59.29"/>
<text text-anchor="middle" x="102.4" y="-1064.59" font-family="Arial" font-size="12.00" fill="white">RESET</text>
<text text-anchor="middle" x="102.4" y="-1051.59" font-family="Arial" font-size="12.00" fill="white">(系统复位)</text>
</g>
<!-- Init -->
<g id="node2" class="node">
<title>Init</title>
<path fill="#3498db" stroke="black" d="M133.9,-915.79C133.9,-915.79 70.9,-915.79 70.9,-915.79 64.9,-915.79 58.9,-909.79 58.9,-903.79 58.9,-903.79 58.9,-879.79 58.9,-879.79 58.9,-873.79 64.9,-867.79 70.9,-867.79 70.9,-867.79 133.9,-867.79 133.9,-867.79 139.9,-867.79 145.9,-873.79 145.9,-879.79 145.9,-879.79 145.9,-903.79 145.9,-903.79 145.9,-909.79 139.9,-915.79 133.9,-915.79"/>
<text text-anchor="middle" x="102.4" y="-895.19" font-family="Arial" font-size="12.00" fill="white">INIT</text>
<text text-anchor="middle" x="102.4" y="-882.19" font-family="Arial" font-size="12.00" fill="white">(寄存器/栈)</text>
</g>
<!-- Reset&#45;&gt;Init -->
<g id="edge1" class="edge">
<title>Reset&#45;&gt;Init</title>
<path fill="none" stroke="#e74c3c" stroke-width="2" d="M102.4,-1001.64C102.4,-976.48 102.4,-947.97 102.4,-926.44"/>
<polygon fill="#e74c3c" stroke="#e74c3c" stroke-width="2" points="105.9,-926.18 102.4,-916.18 98.9,-926.18 105.9,-926.18"/>
<text text-anchor="middle" x="114.9" y="-957.79" font-family="Arial" font-size="10.00">_start</text>
</g>
<!-- Cache -->
<g id="node3" class="node">
<title>Cache</title>
<path fill="#9b59b6" stroke="black" d="M138.9,-784.79C138.9,-784.79 65.9,-784.79 65.9,-784.79 59.9,-784.79 53.9,-778.79 53.9,-772.79 53.9,-772.79 53.9,-748.79 53.9,-748.79 53.9,-742.79 59.9,-736.79 65.9,-736.79 65.9,-736.79 138.9,-736.79 138.9,-736.79 144.9,-736.79 150.9,-742.79 150.9,-748.79 150.9,-748.79 150.9,-772.79 150.9,-772.79 150.9,-778.79 144.9,-784.79 138.9,-784.79"/>
<text text-anchor="middle" x="102.4" y="-764.19" font-family="Arial" font-size="12.00" fill="white">CACHE_ON</text>
<text text-anchor="middle" x="102.4" y="-751.19" font-family="Arial" font-size="12.00" fill="white">(启用缓存)</text>
</g>
<!-- Init&#45;&gt;Cache -->
<g id="edge2" class="edge">
<title>Init&#45;&gt;Cache</title>
<path fill="none" stroke="#3498db" d="M95.61,-867.76C92.77,-856.95 89.8,-843.82 88.4,-831.79 86.97,-819.61 88.74,-806.38 91.45,-794.73"/>
<polygon fill="#3498db" stroke="#3498db" points="94.86,-795.54 94.01,-784.98 88.09,-793.76 94.86,-795.54"/>
<text text-anchor="middle" x="105.9" y="-823.79" font-family="Arial" font-size="10.00">hart_init</text>
</g>
<!-- Init&#45;&gt;Cache -->
<g id="edge12" class="edge">
<title>Init&#45;&gt;Cache</title>
<path fill="none" stroke="#555555" d="M115.72,-867.77C121.11,-857.18 126.69,-844.23 129.4,-831.79 132.18,-819.04 128.64,-805.55 123.31,-793.84"/>
<polygon fill="#555555" stroke="#555555" points="126.41,-792.2 118.74,-784.89 120.17,-795.39 126.41,-792.2"/>
</g>
<!-- DDR -->
<g id="node4" class="node">
<title>DDR</title>
<path fill="#f39c12" stroke="black" d="M138.4,-653.79C138.4,-653.79 66.4,-653.79 66.4,-653.79 60.4,-653.79 54.4,-647.79 54.4,-641.79 54.4,-641.79 54.4,-617.79 54.4,-617.79 54.4,-611.79 60.4,-605.79 66.4,-605.79 66.4,-605.79 138.4,-605.79 138.4,-605.79 144.4,-605.79 150.4,-611.79 150.4,-617.79 150.4,-617.79 150.4,-641.79 150.4,-641.79 150.4,-647.79 144.4,-653.79 138.4,-653.79"/>
<text text-anchor="middle" x="102.4" y="-633.19" font-family="Arial" font-size="12.00" fill="white">DDR_INIT</text>
<text text-anchor="middle" x="102.4" y="-620.19" font-family="Arial" font-size="12.00" fill="white">(内存初始化)</text>
</g>
<!-- Cache&#45;&gt;DDR -->
<g id="edge3" class="edge">
<title>Cache&#45;&gt;DDR</title>
<path fill="none" stroke="#9b59b6" d="M95.61,-736.76C92.77,-725.95 89.8,-712.82 88.4,-700.79 86.97,-688.61 88.74,-675.38 91.45,-663.73"/>
<polygon fill="#9b59b6" stroke="#9b59b6" points="94.86,-664.54 94.01,-653.98 88.09,-662.76 94.86,-664.54"/>
<text text-anchor="middle" x="116.4" y="-692.79" font-family="Arial" font-size="10.00">cache_ready</text>
</g>
<!-- Cache&#45;&gt;DDR -->
<g id="edge13" class="edge">
<title>Cache&#45;&gt;DDR</title>
<path fill="none" stroke="#555555" d="M127.44,-736.63C136.5,-726.6 145.67,-714.11 150.4,-700.79 155.33,-686.92 149.09,-673.21 139.66,-661.65"/>
<polygon fill="#555555" stroke="#555555" points="142.04,-659.06 132.72,-654.01 136.86,-663.77 142.04,-659.06"/>
</g>
<!-- CCM -->
<g id="node5" class="node">
<title>CCM</title>
<path fill="#1abc9c" stroke="black" d="M199.4,-519.79C199.4,-519.79 111.4,-519.79 111.4,-519.79 105.4,-519.79 99.4,-513.79 99.4,-507.79 99.4,-507.79 99.4,-483.79 99.4,-483.79 99.4,-477.79 105.4,-471.79 111.4,-471.79 111.4,-471.79 199.4,-471.79 199.4,-471.79 205.4,-471.79 211.4,-477.79 211.4,-483.79 211.4,-483.79 211.4,-507.79 211.4,-507.79 211.4,-513.79 205.4,-519.79 199.4,-519.79"/>
<text text-anchor="middle" x="155.4" y="-499.19" font-family="Arial" font-size="12.00" fill="white">CCM_ENABLE</text>
<text text-anchor="middle" x="155.4" y="-486.19" font-family="Arial" font-size="12.00" fill="white">(S&#45;mode缓存)</text>
</g>
<!-- DDR&#45;&gt;CCM -->
<g id="edge4" class="edge">
<title>DDR&#45;&gt;CCM</title>
<path fill="none" stroke="#f39c12" d="M111.59,-605.77C117.04,-592.11 124.1,-574.46 130.4,-558.79 134.22,-549.28 138.38,-538.95 142.19,-529.5"/>
<polygon fill="#f39c12" stroke="#f39c12" points="145.51,-530.63 146,-520.05 139.02,-528.01 145.51,-530.63"/>
<text text-anchor="middle" x="145.4" y="-561.79" font-family="Arial" font-size="10.00">ddr_ok</text>
</g>
<!-- Error -->
<g id="node9" class="node">
<title>Error</title>
<ellipse fill="#c0392b" stroke="black" cx="63.4" cy="-63.4" rx="59.3" ry="33.89"/>
<ellipse fill="none" stroke="black" cx="63.4" cy="-63.4" rx="63.29" ry="37.88"/>
<text text-anchor="middle" x="63.4" y="-66.8" font-family="Arial" font-size="12.00" fill="white">ERROR</text>
<text text-anchor="middle" x="63.4" y="-53.8" font-family="Arial" font-size="12.00" fill="white">(启动失败)</text>
</g>
<!-- DDR&#45;&gt;Error -->
<g id="edge5" class="edge">
<title>DDR&#45;&gt;Error</title>
<path fill="none" stroke="#e74c3c" stroke-dasharray="5,2" d="M80.1,-605.63C58.63,-580.81 29.4,-539.22 29.4,-496.79 29.4,-496.79 29.4,-496.79 29.4,-232.79 29.4,-190.9 39.63,-144.28 48.87,-110.73"/>
<polygon fill="#e74c3c" stroke="#e74c3c" points="52.34,-111.34 51.7,-100.76 45.6,-109.43 52.34,-111.34"/>
<text text-anchor="middle" x="45.4" y="-362.29" font-family="Arial" font-size="10.00" fill="#e74c3c">ddr_fail</text>
</g>
<!-- Load -->
<g id="node6" class="node">
<title>Load</title>
<path fill="#34495e" stroke="black" d="M199.9,-388.79C199.9,-388.79 116.9,-388.79 116.9,-388.79 110.9,-388.79 104.9,-382.79 104.9,-376.79 104.9,-376.79 104.9,-352.79 104.9,-352.79 104.9,-346.79 110.9,-340.79 116.9,-340.79 116.9,-340.79 199.9,-340.79 199.9,-340.79 205.9,-340.79 211.9,-346.79 211.9,-352.79 211.9,-352.79 211.9,-376.79 211.9,-376.79 211.9,-382.79 205.9,-388.79 199.9,-388.79"/>
<text text-anchor="middle" x="158.4" y="-368.19" font-family="Arial" font-size="12.00" fill="white">LOAD_IMAGE</text>
<text text-anchor="middle" x="158.4" y="-355.19" font-family="Arial" font-size="12.00" fill="white">(加载FIT)</text>
</g>
<!-- CCM&#45;&gt;Load -->
<g id="edge6" class="edge">
<title>CCM&#45;&gt;Load</title>
<path fill="none" stroke="#1abc9c" d="M147.93,-471.54C144.44,-457.95 141.44,-440.45 143.4,-424.79 144.47,-416.22 146.39,-407.1 148.5,-398.67"/>
<polygon fill="#1abc9c" stroke="#1abc9c" points="151.94,-399.36 151.13,-388.8 145.17,-397.56 151.94,-399.36"/>
<text text-anchor="middle" x="160.9" y="-427.79" font-family="Arial" font-size="10.00">ccm_en</text>
</g>
<!-- CCM&#45;&gt;Load -->
<g id="edge14" class="edge">
<title>CCM&#45;&gt;Load</title>
<path fill="none" stroke="#555555" d="M169.85,-471.61C175.59,-461.09 181.5,-448.25 184.4,-435.79 187.34,-423.14 183.99,-409.67 178.83,-397.95"/>
<polygon fill="#555555" stroke="#555555" points="181.97,-396.39 174.39,-388.99 175.69,-399.5 181.97,-396.39"/>
</g>
<!-- Decrypt -->
<g id="node7" class="node">
<title>Decrypt</title>
<path fill="#e67e22" stroke="black" d="M169.9,-257.79C169.9,-257.79 106.9,-257.79 106.9,-257.79 100.9,-257.79 94.9,-251.79 94.9,-245.79 94.9,-245.79 94.9,-221.79 94.9,-221.79 94.9,-215.79 100.9,-209.79 106.9,-209.79 106.9,-209.79 169.9,-209.79 169.9,-209.79 175.9,-209.79 181.9,-215.79 181.9,-221.79 181.9,-221.79 181.9,-245.79 181.9,-245.79 181.9,-251.79 175.9,-257.79 169.9,-257.79"/>
<text text-anchor="middle" x="138.4" y="-237.19" font-family="Arial" font-size="12.00" fill="white">DECRYPT</text>
<text text-anchor="middle" x="138.4" y="-224.19" font-family="Arial" font-size="12.00" fill="white">(安全解密)</text>
</g>
<!-- Load&#45;&gt;Decrypt -->
<g id="edge7" class="edge">
<title>Load&#45;&gt;Decrypt</title>
<path fill="none" stroke="#e67e22" d="M154.82,-340.73C151.68,-320.5 147.08,-290.82 143.55,-268.02"/>
<polygon fill="#e67e22" stroke="#e67e22" points="147,-267.44 142.01,-258.09 140.08,-268.51 147,-267.44"/>
<text text-anchor="middle" x="169.9" y="-296.79" font-family="Arial" font-size="10.00">encrypted</text>
</g>
<!-- Jump -->
<g id="node8" class="node">
<title>Jump</title>
<ellipse fill="#27ae60" stroke="black" cx="250.4" cy="-63.4" rx="59.3" ry="59.3"/>
<ellipse fill="none" stroke="black" cx="250.4" cy="-63.4" rx="63.29" ry="63.29"/>
<text text-anchor="middle" x="250.4" y="-66.8" font-family="Arial" font-size="12.00" fill="white">JUMP</text>
<text text-anchor="middle" x="250.4" y="-53.8" font-family="Arial" font-size="12.00" fill="white">(跳转执行)</text>
</g>
<!-- Load&#45;&gt;Jump -->
<g id="edge8" class="edge">
<title>Load&#45;&gt;Jump</title>
<path fill="none" stroke="#34495e" d="M178.06,-340.55C186.14,-330.12 195.07,-317.36 201.4,-304.79 228.84,-250.31 230.99,-233.72 242.4,-173.79 244.64,-162.03 246.26,-149.44 247.43,-137.15"/>
<polygon fill="#34495e" stroke="#34495e" points="250.94,-137.18 248.32,-126.91 243.97,-136.57 250.94,-137.18"/>
<text text-anchor="middle" x="244.9" y="-231.29" font-family="Arial" font-size="10.00">plain</text>
</g>
<!-- Decrypt&#45;&gt;Jump -->
<g id="edge9" class="edge">
<title>Decrypt&#45;&gt;Jump</title>
<path fill="none" stroke="#27ae60" d="M153.74,-209.73C168.19,-188.01 190.47,-154.5 210,-125.13"/>
<polygon fill="#27ae60" stroke="#27ae60" points="213.07,-126.83 215.7,-116.57 207.25,-122.96 213.07,-126.83"/>
<text text-anchor="middle" x="207.9" y="-165.79" font-family="Arial" font-size="10.00">decrypt_ok</text>
</g>
<!-- Decrypt&#45;&gt;Error -->
<g id="edge10" class="edge">
<title>Decrypt&#45;&gt;Error</title>
<path fill="none" stroke="#c0392b" stroke-dasharray="5,2" d="M121.67,-209.74C114.48,-199.14 106.38,-186.2 100.4,-173.79 90.75,-153.79 82.53,-130.61 76.3,-110.75"/>
<polygon fill="#c0392b" stroke="#c0392b" points="79.59,-109.54 73.31,-101 72.89,-111.59 79.59,-109.54"/>
<text text-anchor="middle" x="118.9" y="-165.79" font-family="Arial" font-size="10.00" fill="#c0392b">auth_fail</text>
</g>
<!-- Error&#45;&gt;Reset -->
<g id="edge11" class="edge">
<title>Error&#45;&gt;Reset</title>
<path fill="none" stroke="#c0392b" stroke-width="2" stroke-dasharray="5,2" d="M105.95,-91.89C124.02,-103.18 145.47,-116.08 165.4,-126.79 198.67,-144.68 215.45,-136.32 242.4,-162.79 258.99,-179.09 260.15,-187.14 265.4,-209.79 339.61,-530.3 323.29,-643.26 196.4,-946.79 186.34,-970.85 169.39,-993.73 152.62,-1012.55"/>
<polygon fill="#c0392b" stroke="#c0392b" stroke-width="2" points="149.89,-1010.36 145.72,-1020.1 155.05,-1015.08 149.89,-1010.36"/>
<text text-anchor="middle" x="328.9" y="-561.79" font-family="Arial" font-size="10.00">watchdog</text>
</g>
</g>
</svg>
