<?xml version="1.0" encoding="UTF-8" standalone="no"?>
<!DOCTYPE svg PUBLIC "-//W3C//DTD SVG 1.1//EN"
 "http://www.w3.org/Graphics/SVG/1.1/DTD/svg11.dtd">
<!-- Generated by graphviz version 2.43.0 (0)
 -->
<!-- Title: FIT_Image Pages: 1 -->
<svg width="526pt" height="631pt"
 viewBox="0.00 0.00 526.00 630.50" xmlns="http://www.w3.org/2000/svg" xmlns:xlink="http://www.w3.org/1999/xlink">
<g id="graph0" class="graph" transform="scale(1 1) rotate(0) translate(4 626.5)">
<title>FIT_Image</title>
<polygon fill="white" stroke="transparent" points="-4,4 -4,-626.5 522,-626.5 522,4 -4,4"/>
<text text-anchor="middle" x="259" y="-607.3" font-family="Arial Bold" font-size="14.00">FIT 镜像结构与加载流程</text>
<g id="clust1" class="cluster">
<title>cluster_config</title>
<polygon fill="#e3f2fd" stroke="#1976d2" points="224,-415 224,-490 381,-490 381,-415 224,-415"/>
<text text-anchor="middle" x="302.5" y="-474.8" font-family="Arial" font-size="14.00">配置 (configurations)</text>
</g>
<g id="clust2" class="cluster">
<title>cluster_images</title>
<polygon fill="#f3e5f5" stroke="#7b1fa2" points="115,-298 115,-378 385,-378 385,-298 115,-298"/>
<text text-anchor="middle" x="250" y="-362.8" font-family="Arial" font-size="14.00">镜像 (images)</text>
</g>
<g id="clust3" class="cluster">
<title>cluster_cipher</title>
<polygon fill="#fff3e0" stroke="#ef6c00" points="8,-170 8,-261 143,-261 143,-170 8,-170"/>
<text text-anchor="middle" x="75.5" y="-245.8" font-family="Arial" font-size="14.00">加密 (cipher) &#45; 可选</text>
</g>
<g id="clust4" class="cluster">
<title>cluster_sig</title>
<polygon fill="#e8f5e9" stroke="#388e3c" points="153,-170 153,-261 307,-261 307,-170 153,-170"/>
<text text-anchor="middle" x="230" y="-245.8" font-family="Arial" font-size="14.00">签名 (signature) &#45; 可选</text>
</g>
<g id="clust5" class="cluster">
<title>cluster_flow</title>
<polygon fill="#fff8e1" stroke="#fbc02d" points="398,-8 398,-591.5 510,-591.5 510,-8 398,-8"/>
<text text-anchor="middle" x="454" y="-576.3" font-family="Arial" font-size="14.00">SPL 加载流程</text>
</g>
<!-- FIT -->
<g id="node1" class="node">
<title>FIT</title>
<polygon fill="#37474f" stroke="black" stroke-width="2" points="374,-564 371,-568 350,-568 347,-564 158,-564 158,-521 374,-521 374,-564"/>
<text text-anchor="middle" x="266" y="-539.4" font-family="Arial" font-size="12.00" fill="white">FIT Image (kernel.itb)</text>
</g>
<!-- Config1 -->
<g id="node2" class="node">
<title>Config1</title>
<path fill="#bbdefb" stroke="black" d="M276,-459C276,-459 244,-459 244,-459 238,-459 232,-453 232,-447 232,-447 232,-435 232,-435 232,-429 238,-423 244,-423 244,-423 276,-423 276,-423 282,-423 288,-429 288,-435 288,-435 288,-447 288,-447 288,-453 282,-459 276,-459"/>
<text text-anchor="middle" x="260" y="-444" font-family="Arial" font-size="10.00">conf@1</text>
<text text-anchor="middle" x="260" y="-433" font-family="Arial" font-size="10.00">默认配置</text>
</g>
<!-- FIT&#45;&gt;Config1 -->
<g id="edge1" class="edge">
<title>FIT&#45;&gt;Config1</title>
<path fill="none" stroke="black" d="M264.76,-520.88C263.86,-505.94 262.63,-485.59 261.65,-469.3"/>
<polygon fill="black" stroke="black" points="265.14,-469.05 261.04,-459.27 258.15,-469.47 265.14,-469.05"/>
</g>
<!-- Config2 -->
<g id="node3" class="node">
<title>Config2</title>
<path fill="#90caf9" stroke="black" d="M361,-459C361,-459 329,-459 329,-459 323,-459 317,-453 317,-447 317,-447 317,-435 317,-435 317,-429 323,-423 329,-423 329,-423 361,-423 361,-423 367,-423 373,-429 373,-435 373,-435 373,-447 373,-447 373,-453 367,-459 361,-459"/>
<text text-anchor="middle" x="345" y="-444" font-family="Arial" font-size="10.00">conf@2</text>
<text text-anchor="middle" x="345" y="-433" font-family="Arial" font-size="10.00">调试配置</text>
</g>
<!-- FIT&#45;&gt;Config2 -->
<g id="edge2" class="edge">
<title>FIT&#45;&gt;Config2</title>
<path fill="none" stroke="black" d="M282.37,-520.88C294.68,-505.37 311.63,-484.03 324.79,-467.45"/>
<polygon fill="black" stroke="black" points="327.81,-469.28 331.28,-459.27 322.33,-464.93 327.81,-469.28"/>
</g>
<!-- Kernel -->
<g id="node4" class="node">
<title>Kernel</title>
<path fill="#e1bee7" stroke="black" d="M185,-347C185,-347 135,-347 135,-347 129,-347 123,-341 123,-335 123,-335 123,-318 123,-318 123,-312 129,-306 135,-306 135,-306 185,-306 185,-306 191,-306 197,-312 197,-318 197,-318 197,-335 197,-335 197,-341 191,-347 185,-347"/>
<text text-anchor="middle" x="160" y="-335" font-family="Arial" font-size="10.00">kernel@1</text>
<text text-anchor="middle" x="160" y="-324" font-family="Arial" font-size="10.00">内核镜像</text>
<text text-anchor="middle" x="160" y="-313" font-family="Arial" font-size="10.00">[压缩/未压缩]</text>
</g>
<!-- Config1&#45;&gt;Kernel -->
<g id="edge3" class="edge">
<title>Config1&#45;&gt;Kernel</title>
<path fill="none" stroke="#1976d2" stroke-dasharray="5,2" d="M242.7,-422.78C236.11,-416.09 228.6,-408.28 222,-401 208.5,-386.11 193.99,-368.98 182.4,-355"/>
<polygon fill="#1976d2" stroke="#1976d2" points="185.01,-352.66 175.95,-347.17 179.61,-357.11 185.01,-352.66"/>
<text text-anchor="middle" x="237.5" y="-389.8" font-family="Times,serif" font-size="14.00">load</text>
</g>
<!-- Ramdisk -->
<g id="node5" class="node">
<title>Ramdisk</title>
<path fill="#ce93d8" stroke="black" d="M281.5,-344.5C281.5,-344.5 238.5,-344.5 238.5,-344.5 232.5,-344.5 226.5,-338.5 226.5,-332.5 226.5,-332.5 226.5,-320.5 226.5,-320.5 226.5,-314.5 232.5,-308.5 238.5,-308.5 238.5,-308.5 281.5,-308.5 281.5,-308.5 287.5,-308.5 293.5,-314.5 293.5,-320.5 293.5,-320.5 293.5,-332.5 293.5,-332.5 293.5,-338.5 287.5,-344.5 281.5,-344.5"/>
<text text-anchor="middle" x="260" y="-329.5" font-family="Arial" font-size="10.00">ramdisk@1</text>
<text text-anchor="middle" x="260" y="-318.5" font-family="Arial" font-size="10.00">根文件系统</text>
</g>
<!-- Config1&#45;&gt;Ramdisk -->
<g id="edge4" class="edge">
<title>Config1&#45;&gt;Ramdisk</title>
<path fill="none" stroke="#1976d2" stroke-dasharray="5,2" d="M260,-422.91C260,-404.82 260,-376.01 260,-354.77"/>
<polygon fill="#1976d2" stroke="#1976d2" points="263.5,-354.75 260,-344.75 256.5,-354.75 263.5,-354.75"/>
<text text-anchor="middle" x="275.5" y="-389.8" font-family="Times,serif" font-size="14.00">load</text>
</g>
<!-- FDT -->
<g id="node6" class="node">
<title>FDT</title>
<path fill="#ba68c8" stroke="black" d="M365,-344.5C365,-344.5 335,-344.5 335,-344.5 329,-344.5 323,-338.5 323,-332.5 323,-332.5 323,-320.5 323,-320.5 323,-314.5 329,-308.5 335,-308.5 335,-308.5 365,-308.5 365,-308.5 371,-308.5 377,-314.5 377,-320.5 377,-320.5 377,-332.5 377,-332.5 377,-338.5 371,-344.5 365,-344.5"/>
<text text-anchor="middle" x="350" y="-329.5" font-family="Arial" font-size="10.00" fill="white">fdt@1</text>
<text text-anchor="middle" x="350" y="-318.5" font-family="Arial" font-size="10.00" fill="white">设备树</text>
</g>
<!-- Config1&#45;&gt;FDT -->
<g id="edge5" class="edge">
<title>Config1&#45;&gt;FDT</title>
<path fill="none" stroke="#1976d2" stroke-dasharray="5,2" d="M278.01,-422.69C284.55,-416.11 291.83,-408.41 298,-401 310.67,-385.78 323.53,-367.62 333.3,-353.16"/>
<polygon fill="#1976d2" stroke="#1976d2" points="336.31,-354.95 338.95,-344.69 330.49,-351.07 336.31,-354.95"/>
<text text-anchor="middle" x="323.5" y="-389.8" font-family="Times,serif" font-size="14.00">load</text>
</g>
<!-- Cipher -->
<g id="node7" class="node">
<title>Cipher</title>
<path fill="#ffe0b2" stroke="black" d="M120.5,-230C120.5,-230 43.5,-230 43.5,-230 37.5,-230 31.5,-224 31.5,-218 31.5,-218 31.5,-190 31.5,-190 31.5,-184 37.5,-178 43.5,-178 43.5,-178 120.5,-178 120.5,-178 126.5,-178 132.5,-184 132.5,-190 132.5,-190 132.5,-218 132.5,-218 132.5,-224 126.5,-230 120.5,-230"/>
<text text-anchor="middle" x="82" y="-218" font-family="Arial" font-size="10.00">cipher@1</text>
<text text-anchor="middle" x="82" y="-207" font-family="Arial" font-size="10.00">加密信息</text>
<text text-anchor="middle" x="82" y="-196" font-family="Arial" font-size="10.00">• algo: aes&#45;256&#45;cbc</text>
<text text-anchor="middle" x="82" y="-185" font-family="Arial" font-size="10.00">• key&#45;name&#45;hint</text>
</g>
<!-- Kernel&#45;&gt;Cipher -->
<g id="edge6" class="edge">
<title>Kernel&#45;&gt;Cipher</title>
<path fill="none" stroke="#ef6c00" stroke-dasharray="1,5" d="M147.29,-305.87C135.53,-287.7 117.8,-260.3 103.78,-238.65"/>
<polygon fill="#ef6c00" stroke="#ef6c00" points="106.59,-236.55 98.22,-230.06 100.72,-240.36 106.59,-236.55"/>
<text text-anchor="middle" x="147.5" y="-272.8" font-family="Times,serif" font-size="14.00">加密</text>
</g>
<!-- Signature -->
<g id="node8" class="node">
<title>Signature</title>
<path fill="#c8e6c9" stroke="black" d="M266,-230C266,-230 174,-230 174,-230 168,-230 162,-224 162,-218 162,-218 162,-190 162,-190 162,-184 168,-178 174,-178 174,-178 266,-178 266,-178 272,-178 278,-184 278,-190 278,-190 278,-218 278,-218 278,-224 272,-230 266,-230"/>
<text text-anchor="middle" x="220" y="-218" font-family="Arial" font-size="10.00">signature@1</text>
<text text-anchor="middle" x="220" y="-207" font-family="Arial" font-size="10.00">签名块</text>
<text text-anchor="middle" x="220" y="-196" font-family="Arial" font-size="10.00">• algo: sha256,rsa2048</text>
<text text-anchor="middle" x="220" y="-185" font-family="Arial" font-size="10.00">• key&#45;name&#45;hint</text>
</g>
<!-- Kernel&#45;&gt;Signature -->
<g id="edge7" class="edge">
<title>Kernel&#45;&gt;Signature</title>
<path fill="none" stroke="#388e3c" stroke-dasharray="1,5" d="M169.77,-305.87C178.74,-287.86 192.22,-260.79 202.96,-239.23"/>
<polygon fill="#388e3c" stroke="#388e3c" points="206.2,-240.57 207.52,-230.06 199.93,-237.45 206.2,-240.57"/>
<text text-anchor="middle" x="200.5" y="-272.8" font-family="Times,serif" font-size="14.00">签名</text>
</g>
<!-- Step1 -->
<g id="node9" class="node">
<title>Step1</title>
<path fill="#ffecb3" stroke="black" d="M490.5,-560.5C490.5,-560.5 417.5,-560.5 417.5,-560.5 411.5,-560.5 405.5,-554.5 405.5,-548.5 405.5,-548.5 405.5,-536.5 405.5,-536.5 405.5,-530.5 411.5,-524.5 417.5,-524.5 417.5,-524.5 490.5,-524.5 490.5,-524.5 496.5,-524.5 502.5,-530.5 502.5,-536.5 502.5,-536.5 502.5,-548.5 502.5,-548.5 502.5,-554.5 496.5,-560.5 490.5,-560.5"/>
<text text-anchor="middle" x="454" y="-540" font-family="Arial" font-size="10.00">1. 解析 FIT header</text>
</g>
<!-- Step2 -->
<g id="node10" class="node">
<title>Step2</title>
<path fill="#ffe082" stroke="black" d="M475.5,-459C475.5,-459 432.5,-459 432.5,-459 426.5,-459 420.5,-453 420.5,-447 420.5,-447 420.5,-435 420.5,-435 420.5,-429 426.5,-423 432.5,-423 432.5,-423 475.5,-423 475.5,-423 481.5,-423 487.5,-429 487.5,-435 487.5,-435 487.5,-447 487.5,-447 487.5,-453 481.5,-459 475.5,-459"/>
<text text-anchor="middle" x="454" y="-438.5" font-family="Arial" font-size="10.00">2. 查找配置</text>
</g>
<!-- Step1&#45;&gt;Step2 -->
<g id="edge8" class="edge">
<title>Step1&#45;&gt;Step2</title>
<path fill="none" stroke="black" d="M454,-524.17C454,-509.04 454,-486.84 454,-469.33"/>
<polygon fill="black" stroke="black" points="457.5,-469.13 454,-459.13 450.5,-469.13 457.5,-469.13"/>
</g>
<!-- Step3 -->
<g id="node11" class="node">
<title>Step3</title>
<path fill="#ffd54f" stroke="black" d="M489.5,-344.5C489.5,-344.5 418.5,-344.5 418.5,-344.5 412.5,-344.5 406.5,-338.5 406.5,-332.5 406.5,-332.5 406.5,-320.5 406.5,-320.5 406.5,-314.5 412.5,-308.5 418.5,-308.5 418.5,-308.5 489.5,-308.5 489.5,-308.5 495.5,-308.5 501.5,-314.5 501.5,-320.5 501.5,-320.5 501.5,-332.5 501.5,-332.5 501.5,-338.5 495.5,-344.5 489.5,-344.5"/>
<text text-anchor="middle" x="454" y="-324" font-family="Arial" font-size="10.00">3. 验证签名 (可选)</text>
</g>
<!-- Step2&#45;&gt;Step3 -->
<g id="edge9" class="edge">
<title>Step2&#45;&gt;Step3</title>
<path fill="none" stroke="black" d="M454,-422.91C454,-404.82 454,-376.01 454,-354.77"/>
<polygon fill="black" stroke="black" points="457.5,-354.75 454,-344.75 450.5,-354.75 457.5,-354.75"/>
</g>
<!-- Step4 -->
<g id="node12" class="node">
<title>Step4</title>
<path fill="#ffca28" stroke="black" d="M489.5,-222C489.5,-222 418.5,-222 418.5,-222 412.5,-222 406.5,-216 406.5,-210 406.5,-210 406.5,-198 406.5,-198 406.5,-192 412.5,-186 418.5,-186 418.5,-186 489.5,-186 489.5,-186 495.5,-186 501.5,-192 501.5,-198 501.5,-198 501.5,-210 501.5,-210 501.5,-216 495.5,-222 489.5,-222"/>
<text text-anchor="middle" x="454" y="-201.5" font-family="Arial" font-size="10.00">4. 解密镜像 (可选)</text>
</g>
<!-- Step3&#45;&gt;Step4 -->
<g id="edge10" class="edge">
<title>Step3&#45;&gt;Step4</title>
<path fill="none" stroke="black" d="M454,-308.49C454,-288.78 454,-256.01 454,-232.63"/>
<polygon fill="black" stroke="black" points="457.5,-232.31 454,-222.31 450.5,-232.31 457.5,-232.31"/>
</g>
<!-- Step5 -->
<g id="node13" class="node">
<title>Step5</title>
<path fill="#ffc107" stroke="black" d="M480.5,-133C480.5,-133 427.5,-133 427.5,-133 421.5,-133 415.5,-127 415.5,-121 415.5,-121 415.5,-109 415.5,-109 415.5,-103 421.5,-97 427.5,-97 427.5,-97 480.5,-97 480.5,-97 486.5,-97 492.5,-103 492.5,-109 492.5,-109 492.5,-121 492.5,-121 492.5,-127 486.5,-133 480.5,-133"/>
<text text-anchor="middle" x="454" y="-112.5" font-family="Arial" font-size="10.00">5. 加载到内存</text>
</g>
<!-- Step4&#45;&gt;Step5 -->
<g id="edge11" class="edge">
<title>Step4&#45;&gt;Step5</title>
<path fill="none" stroke="black" d="M454,-185.81C454,-173.66 454,-157.11 454,-143.18"/>
<polygon fill="black" stroke="black" points="457.5,-143.15 454,-133.15 450.5,-143.15 457.5,-143.15"/>
</g>
<!-- Step6 -->
<g id="node14" class="node">
<title>Step6</title>
<path fill="#ffb300" stroke="black" d="M475.5,-52C475.5,-52 432.5,-52 432.5,-52 426.5,-52 420.5,-46 420.5,-40 420.5,-40 420.5,-28 420.5,-28 420.5,-22 426.5,-16 432.5,-16 432.5,-16 475.5,-16 475.5,-16 481.5,-16 487.5,-22 487.5,-28 487.5,-28 487.5,-40 487.5,-40 487.5,-46 481.5,-52 475.5,-52"/>
<text text-anchor="middle" x="454" y="-31.5" font-family="Arial" font-size="10.00">6. 跳转执行</text>
</g>
<!-- Step5&#45;&gt;Step6 -->
<g id="edge12" class="edge">
<title>Step5&#45;&gt;Step6</title>
<path fill="none" stroke="black" d="M454,-96.86C454,-86.71 454,-73.63 454,-62.12"/>
<polygon fill="black" stroke="black" points="457.5,-62.11 454,-52.11 450.5,-62.11 457.5,-62.11"/>
</g>
</g>
</svg>
